<mxfile host="app.diagrams.net" agent="Mozilla/5.0 (Windows NT 10.0; Win64; x64) AppleWebKit/537.36 (KHTML, like Gecko) Chrome/133.0.0.0 Safari/537.36" version="26.0.16">
  <diagram name="Trang-1" id="CNKioaXA4PEajtbd_Ssq">
    <mxGraphModel dx="1221" dy="759" grid="1" gridSize="10" guides="1" tooltips="1" connect="1" arrows="1" fold="1" page="1" pageScale="1" pageWidth="827" pageHeight="1169" math="0" shadow="0">
      <root>
        <mxCell id="0" />
        <mxCell id="1" parent="0" />
        <mxCell id="icoWtsjMCzcJTOlnG8rm-1" value="hệ thống" style="swimlane;horizontal=0;whiteSpace=wrap;html=1;" vertex="1" parent="1">
          <mxGeometry y="401" width="820" height="170" as="geometry" />
        </mxCell>
        <mxCell id="icoWtsjMCzcJTOlnG8rm-2" value="Hiển thị các chức năng tương ứng với người dùng" style="rounded=1;whiteSpace=wrap;html=1;" vertex="1" parent="icoWtsjMCzcJTOlnG8rm-1">
          <mxGeometry x="340" y="70" width="120" height="60" as="geometry" />
        </mxCell>
        <mxCell id="icoWtsjMCzcJTOlnG8rm-3" value="Gửi đường link&amp;nbsp;&lt;div&gt;về số&amp;nbsp;&lt;span style=&quot;background-color: transparent; color: light-dark(rgb(0, 0, 0), rgb(255, 255, 255));&quot;&gt;điện thoại&lt;/span&gt;&lt;/div&gt;&lt;div&gt;&lt;span style=&quot;background-color: transparent; color: light-dark(rgb(0, 0, 0), rgb(255, 255, 255));&quot;&gt;đã liên kết&lt;/span&gt;&lt;/div&gt;" style="rounded=1;whiteSpace=wrap;html=1;" vertex="1" parent="icoWtsjMCzcJTOlnG8rm-1">
          <mxGeometry x="580" y="70" width="120" height="60" as="geometry" />
        </mxCell>
        <mxCell id="icoWtsjMCzcJTOlnG8rm-4" value="Hành trình người dùng" style="swimlane;horizontal=0;whiteSpace=wrap;html=1;" vertex="1" parent="1">
          <mxGeometry y="570" width="820" height="160" as="geometry" />
        </mxCell>
        <mxCell id="icoWtsjMCzcJTOlnG8rm-5" style="edgeStyle=orthogonalEdgeStyle;rounded=0;orthogonalLoop=1;jettySize=auto;html=1;exitX=1;exitY=0.5;exitDx=0;exitDy=0;entryX=0;entryY=0.5;entryDx=0;entryDy=0;" edge="1" parent="icoWtsjMCzcJTOlnG8rm-4" source="icoWtsjMCzcJTOlnG8rm-6" target="icoWtsjMCzcJTOlnG8rm-8">
          <mxGeometry relative="1" as="geometry" />
        </mxCell>
        <mxCell id="icoWtsjMCzcJTOlnG8rm-6" value="Sử dụng các chức năng theo nhu cầu người dùng" style="rounded=1;whiteSpace=wrap;html=1;" vertex="1" parent="icoWtsjMCzcJTOlnG8rm-4">
          <mxGeometry x="140" y="50" width="120" height="60" as="geometry" />
        </mxCell>
        <mxCell id="icoWtsjMCzcJTOlnG8rm-7" style="edgeStyle=orthogonalEdgeStyle;rounded=0;orthogonalLoop=1;jettySize=auto;html=1;exitX=1;exitY=0.5;exitDx=0;exitDy=0;entryX=0;entryY=0.5;entryDx=0;entryDy=0;" edge="1" parent="icoWtsjMCzcJTOlnG8rm-4" source="icoWtsjMCzcJTOlnG8rm-8" target="icoWtsjMCzcJTOlnG8rm-9">
          <mxGeometry relative="1" as="geometry" />
        </mxCell>
        <mxCell id="icoWtsjMCzcJTOlnG8rm-8" value="Đăng xuất" style="rounded=1;whiteSpace=wrap;html=1;" vertex="1" parent="icoWtsjMCzcJTOlnG8rm-4">
          <mxGeometry x="340" y="50" width="120" height="60" as="geometry" />
        </mxCell>
        <mxCell id="icoWtsjMCzcJTOlnG8rm-9" value="" style="ellipse;html=1;shape=endState;fillColor=strokeColor;" vertex="1" parent="icoWtsjMCzcJTOlnG8rm-4">
          <mxGeometry x="585" y="65" width="30" height="30" as="geometry" />
        </mxCell>
        <mxCell id="icoWtsjMCzcJTOlnG8rm-10" style="edgeStyle=orthogonalEdgeStyle;rounded=0;orthogonalLoop=1;jettySize=auto;html=1;exitX=0;exitY=0.5;exitDx=0;exitDy=0;entryX=0.5;entryY=0;entryDx=0;entryDy=0;" edge="1" parent="1" source="icoWtsjMCzcJTOlnG8rm-2" target="icoWtsjMCzcJTOlnG8rm-6">
          <mxGeometry relative="1" as="geometry" />
        </mxCell>
        <mxCell id="icoWtsjMCzcJTOlnG8rm-11" value="Khách" style="swimlane;horizontal=0;whiteSpace=wrap;html=1;" vertex="1" parent="1">
          <mxGeometry y="30" width="820" height="370" as="geometry" />
        </mxCell>
        <mxCell id="icoWtsjMCzcJTOlnG8rm-12" style="edgeStyle=orthogonalEdgeStyle;rounded=0;orthogonalLoop=1;jettySize=auto;html=1;exitX=0.5;exitY=1;exitDx=0;exitDy=0;entryX=0.5;entryY=0;entryDx=0;entryDy=0;" edge="1" parent="icoWtsjMCzcJTOlnG8rm-11" source="icoWtsjMCzcJTOlnG8rm-13" target="icoWtsjMCzcJTOlnG8rm-16">
          <mxGeometry relative="1" as="geometry">
            <mxPoint x="414" y="90" as="targetPoint" />
          </mxGeometry>
        </mxCell>
        <mxCell id="icoWtsjMCzcJTOlnG8rm-13" value="" style="ellipse;fillColor=strokeColor;html=1;" vertex="1" parent="icoWtsjMCzcJTOlnG8rm-11">
          <mxGeometry x="385" y="30" width="30" height="30" as="geometry" />
        </mxCell>
        <mxCell id="icoWtsjMCzcJTOlnG8rm-14" value="Chưa có tài khoản" style="edgeStyle=orthogonalEdgeStyle;rounded=0;orthogonalLoop=1;jettySize=auto;html=1;exitX=0;exitY=0.5;exitDx=0;exitDy=0;entryX=1;entryY=0.5;entryDx=0;entryDy=0;" edge="1" parent="icoWtsjMCzcJTOlnG8rm-11" source="icoWtsjMCzcJTOlnG8rm-16" target="icoWtsjMCzcJTOlnG8rm-18">
          <mxGeometry relative="1" as="geometry" />
        </mxCell>
        <mxCell id="icoWtsjMCzcJTOlnG8rm-15" value="Có tài khoản" style="edgeStyle=orthogonalEdgeStyle;rounded=0;orthogonalLoop=1;jettySize=auto;html=1;exitX=0.5;exitY=1;exitDx=0;exitDy=0;entryX=0.5;entryY=0;entryDx=0;entryDy=0;" edge="1" parent="icoWtsjMCzcJTOlnG8rm-11" source="icoWtsjMCzcJTOlnG8rm-16" target="icoWtsjMCzcJTOlnG8rm-21">
          <mxGeometry relative="1" as="geometry" />
        </mxCell>
        <mxCell id="icoWtsjMCzcJTOlnG8rm-16" value="" style="rhombus;whiteSpace=wrap;html=1;" vertex="1" parent="icoWtsjMCzcJTOlnG8rm-11">
          <mxGeometry x="382" y="90" width="36" height="20" as="geometry" />
        </mxCell>
        <mxCell id="icoWtsjMCzcJTOlnG8rm-17" value="" style="edgeStyle=orthogonalEdgeStyle;rounded=0;orthogonalLoop=1;jettySize=auto;html=1;entryX=0.5;entryY=0;entryDx=0;entryDy=0;" edge="1" parent="icoWtsjMCzcJTOlnG8rm-11" source="icoWtsjMCzcJTOlnG8rm-18" target="icoWtsjMCzcJTOlnG8rm-20">
          <mxGeometry relative="1" as="geometry">
            <mxPoint x="190" y="170" as="targetPoint" />
          </mxGeometry>
        </mxCell>
        <mxCell id="icoWtsjMCzcJTOlnG8rm-18" value="Đăng ký tài khoản" style="rounded=1;whiteSpace=wrap;html=1;" vertex="1" parent="icoWtsjMCzcJTOlnG8rm-11">
          <mxGeometry x="100" y="70" width="120" height="60" as="geometry" />
        </mxCell>
        <mxCell id="icoWtsjMCzcJTOlnG8rm-19" style="edgeStyle=orthogonalEdgeStyle;rounded=0;orthogonalLoop=1;jettySize=auto;html=1;exitX=1;exitY=0.5;exitDx=0;exitDy=0;entryX=0;entryY=0.5;entryDx=0;entryDy=0;" edge="1" parent="icoWtsjMCzcJTOlnG8rm-11" source="icoWtsjMCzcJTOlnG8rm-20" target="icoWtsjMCzcJTOlnG8rm-21">
          <mxGeometry relative="1" as="geometry" />
        </mxCell>
        <mxCell id="icoWtsjMCzcJTOlnG8rm-20" value="Xác thực&lt;span style=&quot;background-color: transparent; color: light-dark(rgb(0, 0, 0), rgb(255, 255, 255));&quot;&gt;&amp;nbsp;số&amp;nbsp;&lt;/span&gt;&lt;div&gt;&lt;span style=&quot;background-color: transparent; color: light-dark(rgb(0, 0, 0), rgb(255, 255, 255));&quot;&gt;điện thoại&lt;/span&gt;&lt;/div&gt;" style="rounded=1;whiteSpace=wrap;html=1;" vertex="1" parent="icoWtsjMCzcJTOlnG8rm-11">
          <mxGeometry x="100" y="220" width="120" height="60" as="geometry" />
        </mxCell>
        <mxCell id="icoWtsjMCzcJTOlnG8rm-21" value="Đăng nhập" style="rounded=1;whiteSpace=wrap;html=1;" vertex="1" parent="icoWtsjMCzcJTOlnG8rm-11">
          <mxGeometry x="340" y="220" width="120" height="60" as="geometry" />
        </mxCell>
        <mxCell id="icoWtsjMCzcJTOlnG8rm-22" style="edgeStyle=orthogonalEdgeStyle;rounded=0;orthogonalLoop=1;jettySize=auto;html=1;exitX=0;exitY=0.5;exitDx=0;exitDy=0;entryX=1;entryY=0.5;entryDx=0;entryDy=0;" edge="1" parent="icoWtsjMCzcJTOlnG8rm-11" source="icoWtsjMCzcJTOlnG8rm-23" target="icoWtsjMCzcJTOlnG8rm-21">
          <mxGeometry relative="1" as="geometry" />
        </mxCell>
        <mxCell id="icoWtsjMCzcJTOlnG8rm-23" value="Thiết lập lại mật khẩu" style="rounded=1;whiteSpace=wrap;html=1;" vertex="1" parent="icoWtsjMCzcJTOlnG8rm-11">
          <mxGeometry x="580" y="220" width="120" height="60" as="geometry" />
        </mxCell>
        <mxCell id="icoWtsjMCzcJTOlnG8rm-24" style="edgeStyle=orthogonalEdgeStyle;rounded=0;orthogonalLoop=1;jettySize=auto;html=1;exitX=0.5;exitY=1;exitDx=0;exitDy=0;entryX=0.5;entryY=0;entryDx=0;entryDy=0;" edge="1" parent="icoWtsjMCzcJTOlnG8rm-11" source="icoWtsjMCzcJTOlnG8rm-25" target="icoWtsjMCzcJTOlnG8rm-23">
          <mxGeometry relative="1" as="geometry" />
        </mxCell>
        <mxCell id="icoWtsjMCzcJTOlnG8rm-25" value="Xác nhận tài khoản" style="rounded=1;whiteSpace=wrap;html=1;" vertex="1" parent="icoWtsjMCzcJTOlnG8rm-11">
          <mxGeometry x="580" y="70" width="120" height="60" as="geometry" />
        </mxCell>
        <mxCell id="icoWtsjMCzcJTOlnG8rm-26" value="" style="rhombus;whiteSpace=wrap;html=1;" vertex="1" parent="icoWtsjMCzcJTOlnG8rm-11">
          <mxGeometry x="382" y="320" width="36" height="20" as="geometry" />
        </mxCell>
        <mxCell id="icoWtsjMCzcJTOlnG8rm-27" style="edgeStyle=orthogonalEdgeStyle;rounded=0;orthogonalLoop=1;jettySize=auto;html=1;exitX=0.5;exitY=1;exitDx=0;exitDy=0;entryX=0.5;entryY=0;entryDx=0;entryDy=0;" edge="1" parent="icoWtsjMCzcJTOlnG8rm-11" source="icoWtsjMCzcJTOlnG8rm-21" target="icoWtsjMCzcJTOlnG8rm-26">
          <mxGeometry relative="1" as="geometry" />
        </mxCell>
        <mxCell id="icoWtsjMCzcJTOlnG8rm-28" style="edgeStyle=orthogonalEdgeStyle;rounded=0;orthogonalLoop=1;jettySize=auto;html=1;exitX=1;exitY=0.5;exitDx=0;exitDy=0;entryX=0.5;entryY=0;entryDx=0;entryDy=0;" edge="1" parent="1" source="icoWtsjMCzcJTOlnG8rm-3" target="icoWtsjMCzcJTOlnG8rm-25">
          <mxGeometry relative="1" as="geometry">
            <Array as="points">
              <mxPoint x="740" y="500" />
              <mxPoint x="740" y="60" />
              <mxPoint x="640" y="60" />
            </Array>
          </mxGeometry>
        </mxCell>
        <mxCell id="icoWtsjMCzcJTOlnG8rm-29" style="edgeStyle=orthogonalEdgeStyle;rounded=0;orthogonalLoop=1;jettySize=auto;html=1;exitX=0.5;exitY=1;exitDx=0;exitDy=0;entryX=0.5;entryY=0;entryDx=0;entryDy=0;" edge="1" parent="1" source="icoWtsjMCzcJTOlnG8rm-26" target="icoWtsjMCzcJTOlnG8rm-2">
          <mxGeometry relative="1" as="geometry">
            <mxPoint x="400" y="520" as="targetPoint" />
          </mxGeometry>
        </mxCell>
        <mxCell id="icoWtsjMCzcJTOlnG8rm-30" value="Đăng nhập thành công" style="edgeLabel;html=1;align=center;verticalAlign=middle;resizable=0;points=[];" vertex="1" connectable="0" parent="icoWtsjMCzcJTOlnG8rm-29">
          <mxGeometry x="-0.1143" y="-1" relative="1" as="geometry">
            <mxPoint as="offset" />
          </mxGeometry>
        </mxCell>
        <mxCell id="icoWtsjMCzcJTOlnG8rm-31" value="Quên tài mật khẩu" style="edgeStyle=orthogonalEdgeStyle;rounded=0;orthogonalLoop=1;jettySize=auto;html=1;exitX=1;exitY=0.5;exitDx=0;exitDy=0;entryX=0.5;entryY=0;entryDx=0;entryDy=0;" edge="1" parent="1" source="icoWtsjMCzcJTOlnG8rm-26" target="icoWtsjMCzcJTOlnG8rm-3">
          <mxGeometry relative="1" as="geometry">
            <mxPoint x="550" y="460" as="targetPoint" />
          </mxGeometry>
        </mxCell>
      </root>
    </mxGraphModel>
  </diagram>
</mxfile>
